<?xml version="1.0" encoding="utf-8" standalone="no"?>
<!DOCTYPE svg PUBLIC "-//W3C//DTD SVG 1.1//EN"
  "http://www.w3.org/Graphics/SVG/1.1/DTD/svg11.dtd">
<svg xmlns:xlink="http://www.w3.org/1999/xlink" width="936pt" height="360pt" viewBox="0 0 936 360" xmlns="http://www.w3.org/2000/svg" version="1.1">
 <metadata>
  <rdf:RDF xmlns:dc="http://purl.org/dc/elements/1.1/" xmlns:cc="http://creativecommons.org/ns#" xmlns:rdf="http://www.w3.org/1999/02/22-rdf-syntax-ns#">
   <cc:Work>
    <dc:type rdf:resource="http://purl.org/dc/dcmitype/StillImage"/>
    <dc:date>2025-06-20T14:30:14.938325</dc:date>
    <dc:format>image/svg+xml</dc:format>
    <dc:creator>
     <cc:Agent>
      <dc:title>Matplotlib v3.8.0, https://matplotlib.org/</dc:title>
     </cc:Agent>
    </dc:creator>
   </cc:Work>
  </rdf:RDF>
 </metadata>
 <defs>
  <style type="text/css">*{stroke-linejoin: round; stroke-linecap: butt}</style>
 </defs>
 <g id="figure_1">
  <g id="patch_1">
   <path d="M 0 360 
L 936 360 
L 936 0 
L 0 0 
z
" style="fill: #ffffff"/>
  </g>
  <g id="axes_1">
   <g id="patch_2">
    <path d="M 63.83 219.4 
L 487.365 219.4 
L 487.365 14.76 
L 63.83 14.76 
z
" style="fill: #ffffff"/>
   </g>
   <g id="patch_3">
    <path d="M 83.081591 219.4 
L 160.087955 219.4 
L 160.087955 132.722682 
L 83.081591 132.722682 
z
" clip-path="url(#pecc72c5b5c)" style="fill: #9467bd; fill-opacity: 0.75; stroke: #000000; stroke-linejoin: miter"/>
   </g>
   <g id="patch_4">
    <path d="M 160.087955 219.4 
L 237.094318 219.4 
L 237.094318 219.4 
L 160.087955 219.4 
z
" clip-path="url(#pecc72c5b5c)" style="fill: #9467bd; fill-opacity: 0.75; stroke: #000000; stroke-linejoin: miter"/>
   </g>
   <g id="patch_5">
    <path d="M 237.094318 219.4 
L 314.100682 219.4 
L 314.100682 219.4 
L 237.094318 219.4 
z
" clip-path="url(#pecc72c5b5c)" style="fill: #9467bd; fill-opacity: 0.75; stroke: #000000; stroke-linejoin: miter"/>
   </g>
   <g id="patch_6">
    <path d="M 314.100682 219.4 
L 391.107045 219.4 
L 391.107045 219.4 
L 314.100682 219.4 
z
" clip-path="url(#pecc72c5b5c)" style="fill: #9467bd; fill-opacity: 0.75; stroke: #000000; stroke-linejoin: miter"/>
   </g>
   <g id="patch_7">
    <path d="M 391.107045 219.4 
L 468.113409 219.4 
L 468.113409 219.4 
L 391.107045 219.4 
z
" clip-path="url(#pecc72c5b5c)" style="fill: #9467bd; fill-opacity: 0.75; stroke: #000000; stroke-linejoin: miter"/>
   </g>
   <g id="patch_8">
    <path d="M 83.081591 132.722682 
L 160.087955 132.722682 
L 160.087955 123.522067 
L 83.081591 123.522067 
z
" clip-path="url(#pecc72c5b5c)" style="fill: #d62728; fill-opacity: 0.75; stroke: #000000; stroke-linejoin: miter"/>
   </g>
   <g id="patch_9">
    <path d="M 160.087955 219.4 
L 237.094318 219.4 
L 237.094318 212.344013 
L 160.087955 212.344013 
z
" clip-path="url(#pecc72c5b5c)" style="fill: #d62728; fill-opacity: 0.75; stroke: #000000; stroke-linejoin: miter"/>
   </g>
   <g id="patch_10">
    <path d="M 237.094318 219.4 
L 314.100682 219.4 
L 314.100682 217.582797 
L 237.094318 217.582797 
z
" clip-path="url(#pecc72c5b5c)" style="fill: #d62728; fill-opacity: 0.75; stroke: #000000; stroke-linejoin: miter"/>
   </g>
   <g id="patch_11">
    <path d="M 314.100682 219.4 
L 391.107045 219.4 
L 391.107045 218.311315 
L 314.100682 218.311315 
z
" clip-path="url(#pecc72c5b5c)" style="fill: #d62728; fill-opacity: 0.75; stroke: #000000; stroke-linejoin: miter"/>
   </g>
   <g id="patch_12">
    <path d="M 391.107045 219.4 
L 468.113409 219.4 
L 468.113409 217.959334 
L 391.107045 217.959334 
z
" clip-path="url(#pecc72c5b5c)" style="fill: #d62728; fill-opacity: 0.75; stroke: #000000; stroke-linejoin: miter"/>
   </g>
   <g id="patch_13">
    <path d="M 83.081591 123.522067 
L 160.087955 123.522067 
L 160.087955 109.459206 
L 83.081591 109.459206 
z
" clip-path="url(#pecc72c5b5c)" style="fill: #2ca02c; fill-opacity: 0.75; stroke: #000000; stroke-linejoin: miter"/>
   </g>
   <g id="patch_14">
    <path d="M 160.087955 212.344013 
L 237.094318 212.344013 
L 237.094318 203.257997 
L 160.087955 203.257997 
z
" clip-path="url(#pecc72c5b5c)" style="fill: #2ca02c; fill-opacity: 0.75; stroke: #000000; stroke-linejoin: miter"/>
   </g>
   <g id="patch_15">
    <path d="M 237.094318 217.582797 
L 314.100682 217.582797 
L 314.100682 215.544582 
L 237.094318 215.544582 
z
" clip-path="url(#pecc72c5b5c)" style="fill: #2ca02c; fill-opacity: 0.75; stroke: #000000; stroke-linejoin: miter"/>
   </g>
   <g id="patch_16">
    <path d="M 314.100682 218.311315 
L 391.107045 218.311315 
L 391.107045 216.81335 
L 314.100682 216.81335 
z
" clip-path="url(#pecc72c5b5c)" style="fill: #2ca02c; fill-opacity: 0.75; stroke: #000000; stroke-linejoin: miter"/>
   </g>
   <g id="patch_17">
    <path d="M 391.107045 217.959334 
L 468.113409 217.959334 
L 468.113409 215.937491 
L 391.107045 215.937491 
z
" clip-path="url(#pecc72c5b5c)" style="fill: #2ca02c; fill-opacity: 0.75; stroke: #000000; stroke-linejoin: miter"/>
   </g>
   <g id="patch_18">
    <path d="M 83.081591 109.459206 
L 160.087955 109.459206 
L 160.087955 93.26809 
L 83.081591 93.26809 
z
" clip-path="url(#pecc72c5b5c)" style="fill: #ff7f0e; fill-opacity: 0.75; stroke: #000000; stroke-linejoin: miter"/>
   </g>
   <g id="patch_19">
    <path d="M 160.087955 203.257997 
L 237.094318 203.257997 
L 237.094318 193.361606 
L 160.087955 193.361606 
z
" clip-path="url(#pecc72c5b5c)" style="fill: #ff7f0e; fill-opacity: 0.75; stroke: #000000; stroke-linejoin: miter"/>
   </g>
   <g id="patch_20">
    <path d="M 237.094318 215.544582 
L 314.100682 215.544582 
L 314.100682 213.088902 
L 237.094318 213.088902 
z
" clip-path="url(#pecc72c5b5c)" style="fill: #ff7f0e; fill-opacity: 0.75; stroke: #000000; stroke-linejoin: miter"/>
   </g>
   <g id="patch_21">
    <path d="M 314.100682 216.81335 
L 391.107045 216.81335 
L 391.107045 215.037075 
L 314.100682 215.037075 
z
" clip-path="url(#pecc72c5b5c)" style="fill: #ff7f0e; fill-opacity: 0.75; stroke: #000000; stroke-linejoin: miter"/>
   </g>
   <g id="patch_22">
    <path d="M 391.107045 215.937491 
L 468.113409 215.937491 
L 468.113409 213.702822 
L 391.107045 213.702822 
z
" clip-path="url(#pecc72c5b5c)" style="fill: #ff7f0e; fill-opacity: 0.75; stroke: #000000; stroke-linejoin: miter"/>
   </g>
   <g id="patch_23">
    <path d="M 83.081591 93.26809 
L 160.087955 93.26809 
L 160.087955 60.615731 
L 83.081591 60.615731 
z
" clip-path="url(#pecc72c5b5c)" style="fill: #1f77b4; fill-opacity: 0.75; stroke: #000000; stroke-linejoin: miter"/>
   </g>
   <g id="patch_24">
    <path d="M 160.087955 193.361606 
L 237.094318 193.361606 
L 237.094318 176.08999 
L 160.087955 176.08999 
z
" clip-path="url(#pecc72c5b5c)" style="fill: #1f77b4; fill-opacity: 0.75; stroke: #000000; stroke-linejoin: miter"/>
   </g>
   <g id="patch_25">
    <path d="M 237.094318 213.088902 
L 314.100682 213.088902 
L 314.100682 209.102515 
L 237.094318 209.102515 
z
" clip-path="url(#pecc72c5b5c)" style="fill: #1f77b4; fill-opacity: 0.75; stroke: #000000; stroke-linejoin: miter"/>
   </g>
   <g id="patch_26">
    <path d="M 314.100682 215.037075 
L 391.107045 215.037075 
L 391.107045 212.31127 
L 314.100682 212.31127 
z
" clip-path="url(#pecc72c5b5c)" style="fill: #1f77b4; fill-opacity: 0.75; stroke: #000000; stroke-linejoin: miter"/>
   </g>
   <g id="patch_27">
    <path d="M 391.107045 213.702822 
L 468.113409 213.702822 
L 468.113409 208.193914 
L 391.107045 208.193914 
z
" clip-path="url(#pecc72c5b5c)" style="fill: #1f77b4; fill-opacity: 0.75; stroke: #000000; stroke-linejoin: miter"/>
   </g>
   <g id="matplotlib.axis_1">
    <g id="xtick_1">
     <g id="line2d_1">
      <defs>
       <path id="mbae9c6326b" d="M 0 0 
L 0 3.5 
" style="stroke: #000000; stroke-width: 0.8"/>
      </defs>
      <g>
       <use xlink:href="#mbae9c6326b" x="121.584773" y="219.4" style="stroke: #000000; stroke-width: 0.8"/>
      </g>
     </g>
     <g id="text_1">
      <!-- less_1%_difference -->
      <g transform="translate(124.205085 321.9625) rotate(-90) scale(0.1 -0.1)">
       <defs>
        <path id="DejaVuSans-6c" d="M 603 4863 
L 1178 4863 
L 1178 0 
L 603 0 
L 603 4863 
z
" transform="scale(0.015625)"/>
        <path id="DejaVuSans-65" d="M 3597 1894 
L 3597 1613 
L 953 1613 
Q 991 1019 1311 708 
Q 1631 397 2203 397 
Q 2534 397 2845 478 
Q 3156 559 3463 722 
L 3463 178 
Q 3153 47 2828 -22 
Q 2503 -91 2169 -91 
Q 1331 -91 842 396 
Q 353 884 353 1716 
Q 353 2575 817 3079 
Q 1281 3584 2069 3584 
Q 2775 3584 3186 3129 
Q 3597 2675 3597 1894 
z
M 3022 2063 
Q 3016 2534 2758 2815 
Q 2500 3097 2075 3097 
Q 1594 3097 1305 2825 
Q 1016 2553 972 2059 
L 3022 2063 
z
" transform="scale(0.015625)"/>
        <path id="DejaVuSans-73" d="M 2834 3397 
L 2834 2853 
Q 2591 2978 2328 3040 
Q 2066 3103 1784 3103 
Q 1356 3103 1142 2972 
Q 928 2841 928 2578 
Q 928 2378 1081 2264 
Q 1234 2150 1697 2047 
L 1894 2003 
Q 2506 1872 2764 1633 
Q 3022 1394 3022 966 
Q 3022 478 2636 193 
Q 2250 -91 1575 -91 
Q 1294 -91 989 -36 
Q 684 19 347 128 
L 347 722 
Q 666 556 975 473 
Q 1284 391 1588 391 
Q 1994 391 2212 530 
Q 2431 669 2431 922 
Q 2431 1156 2273 1281 
Q 2116 1406 1581 1522 
L 1381 1569 
Q 847 1681 609 1914 
Q 372 2147 372 2553 
Q 372 3047 722 3315 
Q 1072 3584 1716 3584 
Q 2034 3584 2315 3537 
Q 2597 3491 2834 3397 
z
" transform="scale(0.015625)"/>
        <path id="DejaVuSans-5f" d="M 3263 -1063 
L 3263 -1509 
L -63 -1509 
L -63 -1063 
L 3263 -1063 
z
" transform="scale(0.015625)"/>
        <path id="DejaVuSans-31" d="M 794 531 
L 1825 531 
L 1825 4091 
L 703 3866 
L 703 4441 
L 1819 4666 
L 2450 4666 
L 2450 531 
L 3481 531 
L 3481 0 
L 794 0 
L 794 531 
z
" transform="scale(0.015625)"/>
        <path id="DejaVuSans-25" d="M 4653 2053 
Q 4381 2053 4226 1822 
Q 4072 1591 4072 1178 
Q 4072 772 4226 539 
Q 4381 306 4653 306 
Q 4919 306 5073 539 
Q 5228 772 5228 1178 
Q 5228 1588 5073 1820 
Q 4919 2053 4653 2053 
z
M 4653 2450 
Q 5147 2450 5437 2106 
Q 5728 1763 5728 1178 
Q 5728 594 5436 251 
Q 5144 -91 4653 -91 
Q 4153 -91 3862 251 
Q 3572 594 3572 1178 
Q 3572 1766 3864 2108 
Q 4156 2450 4653 2450 
z
M 1428 4353 
Q 1159 4353 1004 4120 
Q 850 3888 850 3481 
Q 850 3069 1003 2837 
Q 1156 2606 1428 2606 
Q 1700 2606 1854 2837 
Q 2009 3069 2009 3481 
Q 2009 3884 1853 4118 
Q 1697 4353 1428 4353 
z
M 4250 4750 
L 4750 4750 
L 1831 -91 
L 1331 -91 
L 4250 4750 
z
M 1428 4750 
Q 1922 4750 2215 4408 
Q 2509 4066 2509 3481 
Q 2509 2891 2217 2550 
Q 1925 2209 1428 2209 
Q 931 2209 642 2551 
Q 353 2894 353 3481 
Q 353 4063 643 4406 
Q 934 4750 1428 4750 
z
" transform="scale(0.015625)"/>
        <path id="DejaVuSans-64" d="M 2906 2969 
L 2906 4863 
L 3481 4863 
L 3481 0 
L 2906 0 
L 2906 525 
Q 2725 213 2448 61 
Q 2172 -91 1784 -91 
Q 1150 -91 751 415 
Q 353 922 353 1747 
Q 353 2572 751 3078 
Q 1150 3584 1784 3584 
Q 2172 3584 2448 3432 
Q 2725 3281 2906 2969 
z
M 947 1747 
Q 947 1113 1208 752 
Q 1469 391 1925 391 
Q 2381 391 2643 752 
Q 2906 1113 2906 1747 
Q 2906 2381 2643 2742 
Q 2381 3103 1925 3103 
Q 1469 3103 1208 2742 
Q 947 2381 947 1747 
z
" transform="scale(0.015625)"/>
        <path id="DejaVuSans-69" d="M 603 3500 
L 1178 3500 
L 1178 0 
L 603 0 
L 603 3500 
z
M 603 4863 
L 1178 4863 
L 1178 4134 
L 603 4134 
L 603 4863 
z
" transform="scale(0.015625)"/>
        <path id="DejaVuSans-66" d="M 2375 4863 
L 2375 4384 
L 1825 4384 
Q 1516 4384 1395 4259 
Q 1275 4134 1275 3809 
L 1275 3500 
L 2222 3500 
L 2222 3053 
L 1275 3053 
L 1275 0 
L 697 0 
L 697 3053 
L 147 3053 
L 147 3500 
L 697 3500 
L 697 3744 
Q 697 4328 969 4595 
Q 1241 4863 1831 4863 
L 2375 4863 
z
" transform="scale(0.015625)"/>
        <path id="DejaVuSans-72" d="M 2631 2963 
Q 2534 3019 2420 3045 
Q 2306 3072 2169 3072 
Q 1681 3072 1420 2755 
Q 1159 2438 1159 1844 
L 1159 0 
L 581 0 
L 581 3500 
L 1159 3500 
L 1159 2956 
Q 1341 3275 1631 3429 
Q 1922 3584 2338 3584 
Q 2397 3584 2469 3576 
Q 2541 3569 2628 3553 
L 2631 2963 
z
" transform="scale(0.015625)"/>
        <path id="DejaVuSans-6e" d="M 3513 2113 
L 3513 0 
L 2938 0 
L 2938 2094 
Q 2938 2591 2744 2837 
Q 2550 3084 2163 3084 
Q 1697 3084 1428 2787 
Q 1159 2491 1159 1978 
L 1159 0 
L 581 0 
L 581 3500 
L 1159 3500 
L 1159 2956 
Q 1366 3272 1645 3428 
Q 1925 3584 2291 3584 
Q 2894 3584 3203 3211 
Q 3513 2838 3513 2113 
z
" transform="scale(0.015625)"/>
        <path id="DejaVuSans-63" d="M 3122 3366 
L 3122 2828 
Q 2878 2963 2633 3030 
Q 2388 3097 2138 3097 
Q 1578 3097 1268 2742 
Q 959 2388 959 1747 
Q 959 1106 1268 751 
Q 1578 397 2138 397 
Q 2388 397 2633 464 
Q 2878 531 3122 666 
L 3122 134 
Q 2881 22 2623 -34 
Q 2366 -91 2075 -91 
Q 1284 -91 818 406 
Q 353 903 353 1747 
Q 353 2603 823 3093 
Q 1294 3584 2113 3584 
Q 2378 3584 2631 3529 
Q 2884 3475 3122 3366 
z
" transform="scale(0.015625)"/>
       </defs>
       <use xlink:href="#DejaVuSans-6c"/>
       <use xlink:href="#DejaVuSans-65" x="27.783203"/>
       <use xlink:href="#DejaVuSans-73" x="89.306641"/>
       <use xlink:href="#DejaVuSans-73" x="141.40625"/>
       <use xlink:href="#DejaVuSans-5f" x="193.505859"/>
       <use xlink:href="#DejaVuSans-31" x="243.505859"/>
       <use xlink:href="#DejaVuSans-25" x="307.128906"/>
       <use xlink:href="#DejaVuSans-5f" x="402.148438"/>
       <use xlink:href="#DejaVuSans-64" x="452.148438"/>
       <use xlink:href="#DejaVuSans-69" x="515.625"/>
       <use xlink:href="#DejaVuSans-66" x="543.408203"/>
       <use xlink:href="#DejaVuSans-66" x="578.613281"/>
       <use xlink:href="#DejaVuSans-65" x="613.818359"/>
       <use xlink:href="#DejaVuSans-72" x="675.341797"/>
       <use xlink:href="#DejaVuSans-65" x="714.205078"/>
       <use xlink:href="#DejaVuSans-6e" x="775.728516"/>
       <use xlink:href="#DejaVuSans-63" x="839.107422"/>
       <use xlink:href="#DejaVuSans-65" x="894.087891"/>
      </g>
     </g>
    </g>
    <g id="xtick_2">
     <g id="line2d_2">
      <g>
       <use xlink:href="#mbae9c6326b" x="198.591136" y="219.4" style="stroke: #000000; stroke-width: 0.8"/>
      </g>
     </g>
     <g id="text_2">
      <!-- more_1%_difference -->
      <g transform="translate(201.211449 328.510937) rotate(-90) scale(0.1 -0.1)">
       <defs>
        <path id="DejaVuSans-6d" d="M 3328 2828 
Q 3544 3216 3844 3400 
Q 4144 3584 4550 3584 
Q 5097 3584 5394 3201 
Q 5691 2819 5691 2113 
L 5691 0 
L 5113 0 
L 5113 2094 
Q 5113 2597 4934 2840 
Q 4756 3084 4391 3084 
Q 3944 3084 3684 2787 
Q 3425 2491 3425 1978 
L 3425 0 
L 2847 0 
L 2847 2094 
Q 2847 2600 2669 2842 
Q 2491 3084 2119 3084 
Q 1678 3084 1418 2786 
Q 1159 2488 1159 1978 
L 1159 0 
L 581 0 
L 581 3500 
L 1159 3500 
L 1159 2956 
Q 1356 3278 1631 3431 
Q 1906 3584 2284 3584 
Q 2666 3584 2933 3390 
Q 3200 3197 3328 2828 
z
" transform="scale(0.015625)"/>
        <path id="DejaVuSans-6f" d="M 1959 3097 
Q 1497 3097 1228 2736 
Q 959 2375 959 1747 
Q 959 1119 1226 758 
Q 1494 397 1959 397 
Q 2419 397 2687 759 
Q 2956 1122 2956 1747 
Q 2956 2369 2687 2733 
Q 2419 3097 1959 3097 
z
M 1959 3584 
Q 2709 3584 3137 3096 
Q 3566 2609 3566 1747 
Q 3566 888 3137 398 
Q 2709 -91 1959 -91 
Q 1206 -91 779 398 
Q 353 888 353 1747 
Q 353 2609 779 3096 
Q 1206 3584 1959 3584 
z
" transform="scale(0.015625)"/>
       </defs>
       <use xlink:href="#DejaVuSans-6d"/>
       <use xlink:href="#DejaVuSans-6f" x="97.412109"/>
       <use xlink:href="#DejaVuSans-72" x="158.59375"/>
       <use xlink:href="#DejaVuSans-65" x="197.457031"/>
       <use xlink:href="#DejaVuSans-5f" x="258.980469"/>
       <use xlink:href="#DejaVuSans-31" x="308.980469"/>
       <use xlink:href="#DejaVuSans-25" x="372.603516"/>
       <use xlink:href="#DejaVuSans-5f" x="467.623047"/>
       <use xlink:href="#DejaVuSans-64" x="517.623047"/>
       <use xlink:href="#DejaVuSans-69" x="581.099609"/>
       <use xlink:href="#DejaVuSans-66" x="608.882812"/>
       <use xlink:href="#DejaVuSans-66" x="644.087891"/>
       <use xlink:href="#DejaVuSans-65" x="679.292969"/>
       <use xlink:href="#DejaVuSans-72" x="740.816406"/>
       <use xlink:href="#DejaVuSans-65" x="779.679688"/>
       <use xlink:href="#DejaVuSans-6e" x="841.203125"/>
       <use xlink:href="#DejaVuSans-63" x="904.582031"/>
       <use xlink:href="#DejaVuSans-65" x="959.5625"/>
      </g>
     </g>
    </g>
    <g id="xtick_3">
     <g id="line2d_3">
      <g>
       <use xlink:href="#mbae9c6326b" x="275.5975" y="219.4" style="stroke: #000000; stroke-width: 0.8"/>
      </g>
     </g>
     <g id="text_3">
      <!-- more_5%_difference -->
      <g transform="translate(278.217812 328.510937) rotate(-90) scale(0.1 -0.1)">
       <defs>
        <path id="DejaVuSans-35" d="M 691 4666 
L 3169 4666 
L 3169 4134 
L 1269 4134 
L 1269 2991 
Q 1406 3038 1543 3061 
Q 1681 3084 1819 3084 
Q 2600 3084 3056 2656 
Q 3513 2228 3513 1497 
Q 3513 744 3044 326 
Q 2575 -91 1722 -91 
Q 1428 -91 1123 -41 
Q 819 9 494 109 
L 494 744 
Q 775 591 1075 516 
Q 1375 441 1709 441 
Q 2250 441 2565 725 
Q 2881 1009 2881 1497 
Q 2881 1984 2565 2268 
Q 2250 2553 1709 2553 
Q 1456 2553 1204 2497 
Q 953 2441 691 2322 
L 691 4666 
z
" transform="scale(0.015625)"/>
       </defs>
       <use xlink:href="#DejaVuSans-6d"/>
       <use xlink:href="#DejaVuSans-6f" x="97.412109"/>
       <use xlink:href="#DejaVuSans-72" x="158.59375"/>
       <use xlink:href="#DejaVuSans-65" x="197.457031"/>
       <use xlink:href="#DejaVuSans-5f" x="258.980469"/>
       <use xlink:href="#DejaVuSans-35" x="308.980469"/>
       <use xlink:href="#DejaVuSans-25" x="372.603516"/>
       <use xlink:href="#DejaVuSans-5f" x="467.623047"/>
       <use xlink:href="#DejaVuSans-64" x="517.623047"/>
       <use xlink:href="#DejaVuSans-69" x="581.099609"/>
       <use xlink:href="#DejaVuSans-66" x="608.882812"/>
       <use xlink:href="#DejaVuSans-66" x="644.087891"/>
       <use xlink:href="#DejaVuSans-65" x="679.292969"/>
       <use xlink:href="#DejaVuSans-72" x="740.816406"/>
       <use xlink:href="#DejaVuSans-65" x="779.679688"/>
       <use xlink:href="#DejaVuSans-6e" x="841.203125"/>
       <use xlink:href="#DejaVuSans-63" x="904.582031"/>
       <use xlink:href="#DejaVuSans-65" x="959.5625"/>
      </g>
     </g>
    </g>
    <g id="xtick_4">
     <g id="line2d_4">
      <g>
       <use xlink:href="#mbae9c6326b" x="352.603864" y="219.4" style="stroke: #000000; stroke-width: 0.8"/>
      </g>
     </g>
     <g id="text_4">
      <!-- more_10%_difference -->
      <g transform="translate(355.224176 334.873437) rotate(-90) scale(0.1 -0.1)">
       <defs>
        <path id="DejaVuSans-30" d="M 2034 4250 
Q 1547 4250 1301 3770 
Q 1056 3291 1056 2328 
Q 1056 1369 1301 889 
Q 1547 409 2034 409 
Q 2525 409 2770 889 
Q 3016 1369 3016 2328 
Q 3016 3291 2770 3770 
Q 2525 4250 2034 4250 
z
M 2034 4750 
Q 2819 4750 3233 4129 
Q 3647 3509 3647 2328 
Q 3647 1150 3233 529 
Q 2819 -91 2034 -91 
Q 1250 -91 836 529 
Q 422 1150 422 2328 
Q 422 3509 836 4129 
Q 1250 4750 2034 4750 
z
" transform="scale(0.015625)"/>
       </defs>
       <use xlink:href="#DejaVuSans-6d"/>
       <use xlink:href="#DejaVuSans-6f" x="97.412109"/>
       <use xlink:href="#DejaVuSans-72" x="158.59375"/>
       <use xlink:href="#DejaVuSans-65" x="197.457031"/>
       <use xlink:href="#DejaVuSans-5f" x="258.980469"/>
       <use xlink:href="#DejaVuSans-31" x="308.980469"/>
       <use xlink:href="#DejaVuSans-30" x="372.603516"/>
       <use xlink:href="#DejaVuSans-25" x="436.226562"/>
       <use xlink:href="#DejaVuSans-5f" x="531.246094"/>
       <use xlink:href="#DejaVuSans-64" x="581.246094"/>
       <use xlink:href="#DejaVuSans-69" x="644.722656"/>
       <use xlink:href="#DejaVuSans-66" x="672.505859"/>
       <use xlink:href="#DejaVuSans-66" x="707.710938"/>
       <use xlink:href="#DejaVuSans-65" x="742.916016"/>
       <use xlink:href="#DejaVuSans-72" x="804.439453"/>
       <use xlink:href="#DejaVuSans-65" x="843.302734"/>
       <use xlink:href="#DejaVuSans-6e" x="904.826172"/>
       <use xlink:href="#DejaVuSans-63" x="968.205078"/>
       <use xlink:href="#DejaVuSans-65" x="1023.185547"/>
      </g>
     </g>
    </g>
    <g id="xtick_5">
     <g id="line2d_5">
      <g>
       <use xlink:href="#mbae9c6326b" x="429.610227" y="219.4" style="stroke: #000000; stroke-width: 0.8"/>
      </g>
     </g>
     <g id="text_5">
      <!-- more_20%_difference -->
      <g transform="translate(432.23054 334.873437) rotate(-90) scale(0.1 -0.1)">
       <defs>
        <path id="DejaVuSans-32" d="M 1228 531 
L 3431 531 
L 3431 0 
L 469 0 
L 469 531 
Q 828 903 1448 1529 
Q 2069 2156 2228 2338 
Q 2531 2678 2651 2914 
Q 2772 3150 2772 3378 
Q 2772 3750 2511 3984 
Q 2250 4219 1831 4219 
Q 1534 4219 1204 4116 
Q 875 4013 500 3803 
L 500 4441 
Q 881 4594 1212 4672 
Q 1544 4750 1819 4750 
Q 2544 4750 2975 4387 
Q 3406 4025 3406 3419 
Q 3406 3131 3298 2873 
Q 3191 2616 2906 2266 
Q 2828 2175 2409 1742 
Q 1991 1309 1228 531 
z
" transform="scale(0.015625)"/>
       </defs>
       <use xlink:href="#DejaVuSans-6d"/>
       <use xlink:href="#DejaVuSans-6f" x="97.412109"/>
       <use xlink:href="#DejaVuSans-72" x="158.59375"/>
       <use xlink:href="#DejaVuSans-65" x="197.457031"/>
       <use xlink:href="#DejaVuSans-5f" x="258.980469"/>
       <use xlink:href="#DejaVuSans-32" x="308.980469"/>
       <use xlink:href="#DejaVuSans-30" x="372.603516"/>
       <use xlink:href="#DejaVuSans-25" x="436.226562"/>
       <use xlink:href="#DejaVuSans-5f" x="531.246094"/>
       <use xlink:href="#DejaVuSans-64" x="581.246094"/>
       <use xlink:href="#DejaVuSans-69" x="644.722656"/>
       <use xlink:href="#DejaVuSans-66" x="672.505859"/>
       <use xlink:href="#DejaVuSans-66" x="707.710938"/>
       <use xlink:href="#DejaVuSans-65" x="742.916016"/>
       <use xlink:href="#DejaVuSans-72" x="804.439453"/>
       <use xlink:href="#DejaVuSans-65" x="843.302734"/>
       <use xlink:href="#DejaVuSans-6e" x="904.826172"/>
       <use xlink:href="#DejaVuSans-63" x="968.205078"/>
       <use xlink:href="#DejaVuSans-65" x="1023.185547"/>
      </g>
     </g>
    </g>
    <g id="text_6">
     <!-- exon Length Category -->
     <g transform="translate(220.311562 346.471875) scale(0.1 -0.1)">
      <defs>
       <path id="DejaVuSans-78" d="M 3513 3500 
L 2247 1797 
L 3578 0 
L 2900 0 
L 1881 1375 
L 863 0 
L 184 0 
L 1544 1831 
L 300 3500 
L 978 3500 
L 1906 2253 
L 2834 3500 
L 3513 3500 
z
" transform="scale(0.015625)"/>
       <path id="DejaVuSans-20" transform="scale(0.015625)"/>
       <path id="DejaVuSans-4c" d="M 628 4666 
L 1259 4666 
L 1259 531 
L 3531 531 
L 3531 0 
L 628 0 
L 628 4666 
z
" transform="scale(0.015625)"/>
       <path id="DejaVuSans-67" d="M 2906 1791 
Q 2906 2416 2648 2759 
Q 2391 3103 1925 3103 
Q 1463 3103 1205 2759 
Q 947 2416 947 1791 
Q 947 1169 1205 825 
Q 1463 481 1925 481 
Q 2391 481 2648 825 
Q 2906 1169 2906 1791 
z
M 3481 434 
Q 3481 -459 3084 -895 
Q 2688 -1331 1869 -1331 
Q 1566 -1331 1297 -1286 
Q 1028 -1241 775 -1147 
L 775 -588 
Q 1028 -725 1275 -790 
Q 1522 -856 1778 -856 
Q 2344 -856 2625 -561 
Q 2906 -266 2906 331 
L 2906 616 
Q 2728 306 2450 153 
Q 2172 0 1784 0 
Q 1141 0 747 490 
Q 353 981 353 1791 
Q 353 2603 747 3093 
Q 1141 3584 1784 3584 
Q 2172 3584 2450 3431 
Q 2728 3278 2906 2969 
L 2906 3500 
L 3481 3500 
L 3481 434 
z
" transform="scale(0.015625)"/>
       <path id="DejaVuSans-74" d="M 1172 4494 
L 1172 3500 
L 2356 3500 
L 2356 3053 
L 1172 3053 
L 1172 1153 
Q 1172 725 1289 603 
Q 1406 481 1766 481 
L 2356 481 
L 2356 0 
L 1766 0 
Q 1100 0 847 248 
Q 594 497 594 1153 
L 594 3053 
L 172 3053 
L 172 3500 
L 594 3500 
L 594 4494 
L 1172 4494 
z
" transform="scale(0.015625)"/>
       <path id="DejaVuSans-68" d="M 3513 2113 
L 3513 0 
L 2938 0 
L 2938 2094 
Q 2938 2591 2744 2837 
Q 2550 3084 2163 3084 
Q 1697 3084 1428 2787 
Q 1159 2491 1159 1978 
L 1159 0 
L 581 0 
L 581 4863 
L 1159 4863 
L 1159 2956 
Q 1366 3272 1645 3428 
Q 1925 3584 2291 3584 
Q 2894 3584 3203 3211 
Q 3513 2838 3513 2113 
z
" transform="scale(0.015625)"/>
       <path id="DejaVuSans-43" d="M 4122 4306 
L 4122 3641 
Q 3803 3938 3442 4084 
Q 3081 4231 2675 4231 
Q 1875 4231 1450 3742 
Q 1025 3253 1025 2328 
Q 1025 1406 1450 917 
Q 1875 428 2675 428 
Q 3081 428 3442 575 
Q 3803 722 4122 1019 
L 4122 359 
Q 3791 134 3420 21 
Q 3050 -91 2638 -91 
Q 1578 -91 968 557 
Q 359 1206 359 2328 
Q 359 3453 968 4101 
Q 1578 4750 2638 4750 
Q 3056 4750 3426 4639 
Q 3797 4528 4122 4306 
z
" transform="scale(0.015625)"/>
       <path id="DejaVuSans-61" d="M 2194 1759 
Q 1497 1759 1228 1600 
Q 959 1441 959 1056 
Q 959 750 1161 570 
Q 1363 391 1709 391 
Q 2188 391 2477 730 
Q 2766 1069 2766 1631 
L 2766 1759 
L 2194 1759 
z
M 3341 1997 
L 3341 0 
L 2766 0 
L 2766 531 
Q 2569 213 2275 61 
Q 1981 -91 1556 -91 
Q 1019 -91 701 211 
Q 384 513 384 1019 
Q 384 1609 779 1909 
Q 1175 2209 1959 2209 
L 2766 2209 
L 2766 2266 
Q 2766 2663 2505 2880 
Q 2244 3097 1772 3097 
Q 1472 3097 1187 3025 
Q 903 2953 641 2809 
L 641 3341 
Q 956 3463 1253 3523 
Q 1550 3584 1831 3584 
Q 2591 3584 2966 3190 
Q 3341 2797 3341 1997 
z
" transform="scale(0.015625)"/>
       <path id="DejaVuSans-79" d="M 2059 -325 
Q 1816 -950 1584 -1140 
Q 1353 -1331 966 -1331 
L 506 -1331 
L 506 -850 
L 844 -850 
Q 1081 -850 1212 -737 
Q 1344 -625 1503 -206 
L 1606 56 
L 191 3500 
L 800 3500 
L 1894 763 
L 2988 3500 
L 3597 3500 
L 2059 -325 
z
" transform="scale(0.015625)"/>
      </defs>
      <use xlink:href="#DejaVuSans-65"/>
      <use xlink:href="#DejaVuSans-78" x="59.773438"/>
      <use xlink:href="#DejaVuSans-6f" x="115.828125"/>
      <use xlink:href="#DejaVuSans-6e" x="177.009766"/>
      <use xlink:href="#DejaVuSans-20" x="240.388672"/>
      <use xlink:href="#DejaVuSans-4c" x="272.175781"/>
      <use xlink:href="#DejaVuSans-65" x="326.138672"/>
      <use xlink:href="#DejaVuSans-6e" x="387.662109"/>
      <use xlink:href="#DejaVuSans-67" x="451.041016"/>
      <use xlink:href="#DejaVuSans-74" x="514.517578"/>
      <use xlink:href="#DejaVuSans-68" x="553.726562"/>
      <use xlink:href="#DejaVuSans-20" x="617.105469"/>
      <use xlink:href="#DejaVuSans-43" x="648.892578"/>
      <use xlink:href="#DejaVuSans-61" x="718.716797"/>
      <use xlink:href="#DejaVuSans-74" x="779.996094"/>
      <use xlink:href="#DejaVuSans-65" x="819.205078"/>
      <use xlink:href="#DejaVuSans-67" x="880.728516"/>
      <use xlink:href="#DejaVuSans-6f" x="944.205078"/>
      <use xlink:href="#DejaVuSans-72" x="1005.386719"/>
      <use xlink:href="#DejaVuSans-79" x="1046.5"/>
     </g>
    </g>
   </g>
   <g id="matplotlib.axis_2">
    <g id="ytick_1">
     <g id="line2d_6">
      <defs>
       <path id="ma1f0a92961" d="M 0 0 
L -3.5 0 
" style="stroke: #000000; stroke-width: 0.8"/>
      </defs>
      <g>
       <use xlink:href="#ma1f0a92961" x="63.83" y="219.4" style="stroke: #000000; stroke-width: 0.8"/>
      </g>
     </g>
     <g id="text_7">
      <!-- 0 -->
      <g transform="translate(50.4675 223.199219) scale(0.1 -0.1)">
       <use xlink:href="#DejaVuSans-30"/>
      </g>
     </g>
    </g>
    <g id="ytick_2">
     <g id="line2d_7">
      <g>
       <use xlink:href="#ma1f0a92961" x="63.83" y="178.472" style="stroke: #000000; stroke-width: 0.8"/>
      </g>
     </g>
     <g id="text_8">
      <!-- 5000 -->
      <g transform="translate(31.38 182.271219) scale(0.1 -0.1)">
       <use xlink:href="#DejaVuSans-35"/>
       <use xlink:href="#DejaVuSans-30" x="63.623047"/>
       <use xlink:href="#DejaVuSans-30" x="127.246094"/>
       <use xlink:href="#DejaVuSans-30" x="190.869141"/>
      </g>
     </g>
    </g>
    <g id="ytick_3">
     <g id="line2d_8">
      <g>
       <use xlink:href="#ma1f0a92961" x="63.83" y="137.544" style="stroke: #000000; stroke-width: 0.8"/>
      </g>
     </g>
     <g id="text_9">
      <!-- 10000 -->
      <g transform="translate(25.0175 141.343219) scale(0.1 -0.1)">
       <use xlink:href="#DejaVuSans-31"/>
       <use xlink:href="#DejaVuSans-30" x="63.623047"/>
       <use xlink:href="#DejaVuSans-30" x="127.246094"/>
       <use xlink:href="#DejaVuSans-30" x="190.869141"/>
       <use xlink:href="#DejaVuSans-30" x="254.492188"/>
      </g>
     </g>
    </g>
    <g id="ytick_4">
     <g id="line2d_9">
      <g>
       <use xlink:href="#ma1f0a92961" x="63.83" y="96.616" style="stroke: #000000; stroke-width: 0.8"/>
      </g>
     </g>
     <g id="text_10">
      <!-- 15000 -->
      <g transform="translate(25.0175 100.415219) scale(0.1 -0.1)">
       <use xlink:href="#DejaVuSans-31"/>
       <use xlink:href="#DejaVuSans-35" x="63.623047"/>
       <use xlink:href="#DejaVuSans-30" x="127.246094"/>
       <use xlink:href="#DejaVuSans-30" x="190.869141"/>
       <use xlink:href="#DejaVuSans-30" x="254.492188"/>
      </g>
     </g>
    </g>
    <g id="ytick_5">
     <g id="line2d_10">
      <g>
       <use xlink:href="#ma1f0a92961" x="63.83" y="55.688" style="stroke: #000000; stroke-width: 0.8"/>
      </g>
     </g>
     <g id="text_11">
      <!-- 20000 -->
      <g transform="translate(25.0175 59.487219) scale(0.1 -0.1)">
       <use xlink:href="#DejaVuSans-32"/>
       <use xlink:href="#DejaVuSans-30" x="63.623047"/>
       <use xlink:href="#DejaVuSans-30" x="127.246094"/>
       <use xlink:href="#DejaVuSans-30" x="190.869141"/>
       <use xlink:href="#DejaVuSans-30" x="254.492188"/>
      </g>
     </g>
    </g>
    <g id="ytick_6">
     <g id="line2d_11">
      <g>
       <use xlink:href="#ma1f0a92961" x="63.83" y="14.76" style="stroke: #000000; stroke-width: 0.8"/>
      </g>
     </g>
     <g id="text_12">
      <!-- 25000 -->
      <g transform="translate(25.0175 18.559219) scale(0.1 -0.1)">
       <use xlink:href="#DejaVuSans-32"/>
       <use xlink:href="#DejaVuSans-35" x="63.623047"/>
       <use xlink:href="#DejaVuSans-30" x="127.246094"/>
       <use xlink:href="#DejaVuSans-30" x="190.869141"/>
       <use xlink:href="#DejaVuSans-30" x="254.492188"/>
      </g>
     </g>
    </g>
    <g id="text_13">
     <!-- Count -->
     <g transform="translate(18.937812 131.928437) rotate(-90) scale(0.1 -0.1)">
      <defs>
       <path id="DejaVuSans-75" d="M 544 1381 
L 544 3500 
L 1119 3500 
L 1119 1403 
Q 1119 906 1312 657 
Q 1506 409 1894 409 
Q 2359 409 2629 706 
Q 2900 1003 2900 1516 
L 2900 3500 
L 3475 3500 
L 3475 0 
L 2900 0 
L 2900 538 
Q 2691 219 2414 64 
Q 2138 -91 1772 -91 
Q 1169 -91 856 284 
Q 544 659 544 1381 
z
M 1991 3584 
L 1991 3584 
z
" transform="scale(0.015625)"/>
      </defs>
      <use xlink:href="#DejaVuSans-43"/>
      <use xlink:href="#DejaVuSans-6f" x="69.824219"/>
      <use xlink:href="#DejaVuSans-75" x="131.005859"/>
      <use xlink:href="#DejaVuSans-6e" x="194.384766"/>
      <use xlink:href="#DejaVuSans-74" x="257.763672"/>
     </g>
    </g>
   </g>
   <g id="patch_28">
    <path d="M 63.83 219.4 
L 63.83 14.76 
" style="fill: none; stroke: #000000; stroke-width: 0.8; stroke-linejoin: miter; stroke-linecap: square"/>
   </g>
   <g id="patch_29">
    <path d="M 487.365 219.4 
L 487.365 14.76 
" style="fill: none; stroke: #000000; stroke-width: 0.8; stroke-linejoin: miter; stroke-linecap: square"/>
   </g>
   <g id="patch_30">
    <path d="M 63.83 219.4 
L 487.365 219.4 
" style="fill: none; stroke: #000000; stroke-width: 0.8; stroke-linejoin: miter; stroke-linecap: square"/>
   </g>
   <g id="patch_31">
    <path d="M 63.83 14.76 
L 487.365 14.76 
" style="fill: none; stroke: #000000; stroke-width: 0.8; stroke-linejoin: miter; stroke-linecap: square"/>
   </g>
   <g id="legend_1">
    <g id="patch_32">
     <path d="M 270.068125 111.385 
L 480.365 111.385 
Q 482.365 111.385 482.365 109.385 
L 482.365 21.76 
Q 482.365 19.76 480.365 19.76 
L 270.068125 19.76 
Q 268.068125 19.76 268.068125 21.76 
L 268.068125 109.385 
Q 268.068125 111.385 270.068125 111.385 
z
" style="fill: #ffffff; opacity: 0.8; stroke: #cccccc; stroke-linejoin: miter"/>
    </g>
    <g id="text_14">
     <!-- exon_haplotype_with_longest_annotation -->
     <g transform="translate(272.068125 31.358437) scale(0.1 -0.1)">
      <defs>
       <path id="DejaVuSans-70" d="M 1159 525 
L 1159 -1331 
L 581 -1331 
L 581 3500 
L 1159 3500 
L 1159 2969 
Q 1341 3281 1617 3432 
Q 1894 3584 2278 3584 
Q 2916 3584 3314 3078 
Q 3713 2572 3713 1747 
Q 3713 922 3314 415 
Q 2916 -91 2278 -91 
Q 1894 -91 1617 61 
Q 1341 213 1159 525 
z
M 3116 1747 
Q 3116 2381 2855 2742 
Q 2594 3103 2138 3103 
Q 1681 3103 1420 2742 
Q 1159 2381 1159 1747 
Q 1159 1113 1420 752 
Q 1681 391 2138 391 
Q 2594 391 2855 752 
Q 3116 1113 3116 1747 
z
" transform="scale(0.015625)"/>
       <path id="DejaVuSans-77" d="M 269 3500 
L 844 3500 
L 1563 769 
L 2278 3500 
L 2956 3500 
L 3675 769 
L 4391 3500 
L 4966 3500 
L 4050 0 
L 3372 0 
L 2619 2869 
L 1863 0 
L 1184 0 
L 269 3500 
z
" transform="scale(0.015625)"/>
      </defs>
      <use xlink:href="#DejaVuSans-65"/>
      <use xlink:href="#DejaVuSans-78" x="59.773438"/>
      <use xlink:href="#DejaVuSans-6f" x="115.828125"/>
      <use xlink:href="#DejaVuSans-6e" x="177.009766"/>
      <use xlink:href="#DejaVuSans-5f" x="240.388672"/>
      <use xlink:href="#DejaVuSans-68" x="290.388672"/>
      <use xlink:href="#DejaVuSans-61" x="353.767578"/>
      <use xlink:href="#DejaVuSans-70" x="415.046875"/>
      <use xlink:href="#DejaVuSans-6c" x="478.523438"/>
      <use xlink:href="#DejaVuSans-6f" x="506.306641"/>
      <use xlink:href="#DejaVuSans-74" x="567.488281"/>
      <use xlink:href="#DejaVuSans-79" x="606.697266"/>
      <use xlink:href="#DejaVuSans-70" x="665.876953"/>
      <use xlink:href="#DejaVuSans-65" x="729.353516"/>
      <use xlink:href="#DejaVuSans-5f" x="790.876953"/>
      <use xlink:href="#DejaVuSans-77" x="840.876953"/>
      <use xlink:href="#DejaVuSans-69" x="922.664062"/>
      <use xlink:href="#DejaVuSans-74" x="950.447266"/>
      <use xlink:href="#DejaVuSans-68" x="989.65625"/>
      <use xlink:href="#DejaVuSans-5f" x="1053.035156"/>
      <use xlink:href="#DejaVuSans-6c" x="1103.035156"/>
      <use xlink:href="#DejaVuSans-6f" x="1130.818359"/>
      <use xlink:href="#DejaVuSans-6e" x="1192"/>
      <use xlink:href="#DejaVuSans-67" x="1255.378906"/>
      <use xlink:href="#DejaVuSans-65" x="1318.855469"/>
      <use xlink:href="#DejaVuSans-73" x="1380.378906"/>
      <use xlink:href="#DejaVuSans-74" x="1432.478516"/>
      <use xlink:href="#DejaVuSans-5f" x="1471.6875"/>
      <use xlink:href="#DejaVuSans-61" x="1521.6875"/>
      <use xlink:href="#DejaVuSans-6e" x="1582.966797"/>
      <use xlink:href="#DejaVuSans-6e" x="1646.345703"/>
      <use xlink:href="#DejaVuSans-6f" x="1709.724609"/>
      <use xlink:href="#DejaVuSans-74" x="1770.90625"/>
      <use xlink:href="#DejaVuSans-61" x="1810.115234"/>
      <use xlink:href="#DejaVuSans-74" x="1871.394531"/>
      <use xlink:href="#DejaVuSans-69" x="1910.603516"/>
      <use xlink:href="#DejaVuSans-6f" x="1938.386719"/>
      <use xlink:href="#DejaVuSans-6e" x="1999.568359"/>
     </g>
    </g>
    <g id="patch_33">
     <path d="M 326.301719 46.314687 
L 346.301719 46.314687 
L 346.301719 39.314687 
L 326.301719 39.314687 
z
" style="fill: #1f77b4; fill-opacity: 0.75; stroke: #000000; stroke-linejoin: miter"/>
    </g>
    <g id="text_15">
     <!-- 1G -->
     <g transform="translate(354.301719 46.314687) scale(0.1 -0.1)">
      <defs>
       <path id="DejaVuSans-47" d="M 3809 666 
L 3809 1919 
L 2778 1919 
L 2778 2438 
L 4434 2438 
L 4434 434 
Q 4069 175 3628 42 
Q 3188 -91 2688 -91 
Q 1594 -91 976 548 
Q 359 1188 359 2328 
Q 359 3472 976 4111 
Q 1594 4750 2688 4750 
Q 3144 4750 3555 4637 
Q 3966 4525 4313 4306 
L 4313 3634 
Q 3963 3931 3569 4081 
Q 3175 4231 2741 4231 
Q 1884 4231 1454 3753 
Q 1025 3275 1025 2328 
Q 1025 1384 1454 906 
Q 1884 428 2741 428 
Q 3075 428 3337 486 
Q 3600 544 3809 666 
z
" transform="scale(0.015625)"/>
      </defs>
      <use xlink:href="#DejaVuSans-31"/>
      <use xlink:href="#DejaVuSans-47" x="63.623047"/>
     </g>
    </g>
    <g id="patch_34">
     <path d="M 326.301719 60.992813 
L 346.301719 60.992813 
L 346.301719 53.992813 
L 326.301719 53.992813 
z
" style="fill: #ff7f0e; fill-opacity: 0.75; stroke: #000000; stroke-linejoin: miter"/>
    </g>
    <g id="text_16">
     <!-- 2G -->
     <g transform="translate(354.301719 60.992813) scale(0.1 -0.1)">
      <use xlink:href="#DejaVuSans-32"/>
      <use xlink:href="#DejaVuSans-47" x="63.623047"/>
     </g>
    </g>
    <g id="patch_35">
     <path d="M 326.301719 75.670937 
L 346.301719 75.670937 
L 346.301719 68.670937 
L 326.301719 68.670937 
z
" style="fill: #2ca02c; fill-opacity: 0.75; stroke: #000000; stroke-linejoin: miter"/>
    </g>
    <g id="text_17">
     <!-- 3G -->
     <g transform="translate(354.301719 75.670937) scale(0.1 -0.1)">
      <defs>
       <path id="DejaVuSans-33" d="M 2597 2516 
Q 3050 2419 3304 2112 
Q 3559 1806 3559 1356 
Q 3559 666 3084 287 
Q 2609 -91 1734 -91 
Q 1441 -91 1130 -33 
Q 819 25 488 141 
L 488 750 
Q 750 597 1062 519 
Q 1375 441 1716 441 
Q 2309 441 2620 675 
Q 2931 909 2931 1356 
Q 2931 1769 2642 2001 
Q 2353 2234 1838 2234 
L 1294 2234 
L 1294 2753 
L 1863 2753 
Q 2328 2753 2575 2939 
Q 2822 3125 2822 3475 
Q 2822 3834 2567 4026 
Q 2313 4219 1838 4219 
Q 1578 4219 1281 4162 
Q 984 4106 628 3988 
L 628 4550 
Q 988 4650 1302 4700 
Q 1616 4750 1894 4750 
Q 2613 4750 3031 4423 
Q 3450 4097 3450 3541 
Q 3450 3153 3228 2886 
Q 3006 2619 2597 2516 
z
" transform="scale(0.015625)"/>
      </defs>
      <use xlink:href="#DejaVuSans-33"/>
      <use xlink:href="#DejaVuSans-47" x="63.623047"/>
     </g>
    </g>
    <g id="patch_36">
     <path d="M 326.301719 90.349063 
L 346.301719 90.349063 
L 346.301719 83.349063 
L 326.301719 83.349063 
z
" style="fill: #d62728; fill-opacity: 0.75; stroke: #000000; stroke-linejoin: miter"/>
    </g>
    <g id="text_18">
     <!-- 4G -->
     <g transform="translate(354.301719 90.349063) scale(0.1 -0.1)">
      <defs>
       <path id="DejaVuSans-34" d="M 2419 4116 
L 825 1625 
L 2419 1625 
L 2419 4116 
z
M 2253 4666 
L 3047 4666 
L 3047 1625 
L 3713 1625 
L 3713 1100 
L 3047 1100 
L 3047 0 
L 2419 0 
L 2419 1100 
L 313 1100 
L 313 1709 
L 2253 4666 
z
" transform="scale(0.015625)"/>
      </defs>
      <use xlink:href="#DejaVuSans-34"/>
      <use xlink:href="#DejaVuSans-47" x="63.623047"/>
     </g>
    </g>
    <g id="patch_37">
     <path d="M 326.301719 105.027187 
L 346.301719 105.027187 
L 346.301719 98.027187 
L 326.301719 98.027187 
z
" style="fill: #9467bd; fill-opacity: 0.75; stroke: #000000; stroke-linejoin: miter"/>
    </g>
    <g id="text_19">
     <!-- equal_lengths -->
     <g transform="translate(354.301719 105.027187) scale(0.1 -0.1)">
      <defs>
       <path id="DejaVuSans-71" d="M 947 1747 
Q 947 1113 1208 752 
Q 1469 391 1925 391 
Q 2381 391 2643 752 
Q 2906 1113 2906 1747 
Q 2906 2381 2643 2742 
Q 2381 3103 1925 3103 
Q 1469 3103 1208 2742 
Q 947 2381 947 1747 
z
M 2906 525 
Q 2725 213 2448 61 
Q 2172 -91 1784 -91 
Q 1150 -91 751 415 
Q 353 922 353 1747 
Q 353 2572 751 3078 
Q 1150 3584 1784 3584 
Q 2172 3584 2448 3432 
Q 2725 3281 2906 2969 
L 2906 3500 
L 3481 3500 
L 3481 -1331 
L 2906 -1331 
L 2906 525 
z
" transform="scale(0.015625)"/>
      </defs>
      <use xlink:href="#DejaVuSans-65"/>
      <use xlink:href="#DejaVuSans-71" x="61.523438"/>
      <use xlink:href="#DejaVuSans-75" x="125"/>
      <use xlink:href="#DejaVuSans-61" x="188.378906"/>
      <use xlink:href="#DejaVuSans-6c" x="249.658203"/>
      <use xlink:href="#DejaVuSans-5f" x="277.441406"/>
      <use xlink:href="#DejaVuSans-6c" x="327.441406"/>
      <use xlink:href="#DejaVuSans-65" x="355.224609"/>
      <use xlink:href="#DejaVuSans-6e" x="416.748047"/>
      <use xlink:href="#DejaVuSans-67" x="480.126953"/>
      <use xlink:href="#DejaVuSans-74" x="543.603516"/>
      <use xlink:href="#DejaVuSans-68" x="582.8125"/>
      <use xlink:href="#DejaVuSans-73" x="646.191406"/>
     </g>
    </g>
   </g>
  </g>
  <g id="axes_2">
   <g id="patch_38">
    <path d="M 501.665 219.4 
L 925.2 219.4 
L 925.2 14.76 
L 501.665 14.76 
z
" style="fill: #ffffff"/>
   </g>
   <g id="patch_39">
    <path d="M 520.916591 219.4 
L 597.922955 219.4 
L 597.922955 64.888614 
L 520.916591 64.888614 
z
" clip-path="url(#p40d79e9d4d)" style="fill: #9467bd; fill-opacity: 0.75; stroke: #000000; stroke-linejoin: miter"/>
   </g>
   <g id="patch_40">
    <path d="M 597.922955 219.4 
L 674.929318 219.4 
L 674.929318 219.4 
L 597.922955 219.4 
z
" clip-path="url(#p40d79e9d4d)" style="fill: #9467bd; fill-opacity: 0.75; stroke: #000000; stroke-linejoin: miter"/>
   </g>
   <g id="patch_41">
    <path d="M 674.929318 219.4 
L 751.935682 219.4 
L 751.935682 219.4 
L 674.929318 219.4 
z
" clip-path="url(#p40d79e9d4d)" style="fill: #9467bd; fill-opacity: 0.75; stroke: #000000; stroke-linejoin: miter"/>
   </g>
   <g id="patch_42">
    <path d="M 751.935682 219.4 
L 828.942045 219.4 
L 828.942045 219.4 
L 751.935682 219.4 
z
" clip-path="url(#p40d79e9d4d)" style="fill: #9467bd; fill-opacity: 0.75; stroke: #000000; stroke-linejoin: miter"/>
   </g>
   <g id="patch_43">
    <path d="M 828.942045 219.4 
L 905.948409 219.4 
L 905.948409 219.4 
L 828.942045 219.4 
z
" clip-path="url(#p40d79e9d4d)" style="fill: #9467bd; fill-opacity: 0.75; stroke: #000000; stroke-linejoin: miter"/>
   </g>
   <g id="patch_44">
    <path d="M 520.916591 64.888614 
L 597.922955 64.888614 
L 597.922955 61.123238 
L 520.916591 61.123238 
z
" clip-path="url(#p40d79e9d4d)" style="fill: #d62728; fill-opacity: 0.75; stroke: #000000; stroke-linejoin: miter"/>
   </g>
   <g id="patch_45">
    <path d="M 597.922955 219.4 
L 674.929318 219.4 
L 674.929318 216.485926 
L 597.922955 216.485926 
z
" clip-path="url(#p40d79e9d4d)" style="fill: #d62728; fill-opacity: 0.75; stroke: #000000; stroke-linejoin: miter"/>
   </g>
   <g id="patch_46">
    <path d="M 674.929318 219.4 
L 751.935682 219.4 
L 751.935682 218.851565 
L 674.929318 218.851565 
z
" clip-path="url(#p40d79e9d4d)" style="fill: #d62728; fill-opacity: 0.75; stroke: #000000; stroke-linejoin: miter"/>
   </g>
   <g id="patch_47">
    <path d="M 751.935682 219.4 
L 828.942045 219.4 
L 828.942045 219.031648 
L 751.935682 219.031648 
z
" clip-path="url(#p40d79e9d4d)" style="fill: #d62728; fill-opacity: 0.75; stroke: #000000; stroke-linejoin: miter"/>
   </g>
   <g id="patch_48">
    <path d="M 828.942045 219.4 
L 905.948409 219.4 
L 905.948409 218.483213 
L 828.942045 218.483213 
z
" clip-path="url(#p40d79e9d4d)" style="fill: #d62728; fill-opacity: 0.75; stroke: #000000; stroke-linejoin: miter"/>
   </g>
   <g id="patch_49">
    <path d="M 520.916591 61.123238 
L 597.922955 61.123238 
L 597.922955 54.615686 
L 520.916591 54.615686 
z
" clip-path="url(#p40d79e9d4d)" style="fill: #2ca02c; fill-opacity: 0.75; stroke: #000000; stroke-linejoin: miter"/>
   </g>
   <g id="patch_50">
    <path d="M 597.922955 216.485926 
L 674.929318 216.485926 
L 674.929318 212.278528 
L 597.922955 212.278528 
z
" clip-path="url(#p40d79e9d4d)" style="fill: #2ca02c; fill-opacity: 0.75; stroke: #000000; stroke-linejoin: miter"/>
   </g>
   <g id="patch_51">
    <path d="M 674.929318 218.851565 
L 751.935682 218.851565 
L 751.935682 217.975706 
L 674.929318 217.975706 
z
" clip-path="url(#p40d79e9d4d)" style="fill: #2ca02c; fill-opacity: 0.75; stroke: #000000; stroke-linejoin: miter"/>
   </g>
   <g id="patch_52">
    <path d="M 751.935682 219.031648 
L 828.942045 219.031648 
L 828.942045 218.524141 
L 751.935682 218.524141 
z
" clip-path="url(#p40d79e9d4d)" style="fill: #2ca02c; fill-opacity: 0.75; stroke: #000000; stroke-linejoin: miter"/>
   </g>
   <g id="patch_53">
    <path d="M 828.942045 218.483213 
L 905.948409 218.483213 
L 905.948409 217.3536 
L 828.942045 217.3536 
z
" clip-path="url(#p40d79e9d4d)" style="fill: #2ca02c; fill-opacity: 0.75; stroke: #000000; stroke-linejoin: miter"/>
   </g>
   <g id="patch_54">
    <path d="M 520.916591 54.615686 
L 597.922955 54.615686 
L 597.922955 45.824352 
L 520.916591 45.824352 
z
" clip-path="url(#p40d79e9d4d)" style="fill: #ff7f0e; fill-opacity: 0.75; stroke: #000000; stroke-linejoin: miter"/>
   </g>
   <g id="patch_55">
    <path d="M 597.922955 212.278528 
L 674.929318 212.278528 
L 674.929318 207.260755 
L 597.922955 207.260755 
z
" clip-path="url(#p40d79e9d4d)" style="fill: #ff7f0e; fill-opacity: 0.75; stroke: #000000; stroke-linejoin: miter"/>
   </g>
   <g id="patch_56">
    <path d="M 674.929318 217.975706 
L 751.935682 217.975706 
L 751.935682 216.690566 
L 674.929318 216.690566 
z
" clip-path="url(#p40d79e9d4d)" style="fill: #ff7f0e; fill-opacity: 0.75; stroke: #000000; stroke-linejoin: miter"/>
   </g>
   <g id="patch_57">
    <path d="M 751.935682 218.524141 
L 828.942045 218.524141 
L 828.942045 217.566426 
L 751.935682 217.566426 
z
" clip-path="url(#p40d79e9d4d)" style="fill: #ff7f0e; fill-opacity: 0.75; stroke: #000000; stroke-linejoin: miter"/>
   </g>
   <g id="patch_58">
    <path d="M 828.942045 217.3536 
L 905.948409 217.3536 
L 905.948409 215.798336 
L 828.942045 215.798336 
z
" clip-path="url(#p40d79e9d4d)" style="fill: #ff7f0e; fill-opacity: 0.75; stroke: #000000; stroke-linejoin: miter"/>
   </g>
   <g id="patch_59">
    <path d="M 520.916591 45.824352 
L 597.922955 45.824352 
L 597.922955 27.529536 
L 520.916591 27.529536 
z
" clip-path="url(#p40d79e9d4d)" style="fill: #1f77b4; fill-opacity: 0.75; stroke: #000000; stroke-linejoin: miter"/>
   </g>
   <g id="patch_60">
    <path d="M 597.922955 207.260755 
L 674.929318 207.260755 
L 674.929318 196.930528 
L 597.922955 196.930528 
z
" clip-path="url(#p40d79e9d4d)" style="fill: #1f77b4; fill-opacity: 0.75; stroke: #000000; stroke-linejoin: miter"/>
   </g>
   <g id="patch_61">
    <path d="M 674.929318 216.690566 
L 751.935682 216.690566 
L 751.935682 214.578682 
L 674.929318 214.578682 
z
" clip-path="url(#p40d79e9d4d)" style="fill: #1f77b4; fill-opacity: 0.75; stroke: #000000; stroke-linejoin: miter"/>
   </g>
   <g id="patch_62">
    <path d="M 751.935682 217.566426 
L 828.942045 217.566426 
L 828.942045 215.986605 
L 751.935682 215.986605 
z
" clip-path="url(#p40d79e9d4d)" style="fill: #1f77b4; fill-opacity: 0.75; stroke: #000000; stroke-linejoin: miter"/>
   </g>
   <g id="patch_63">
    <path d="M 828.942045 215.798336 
L 905.948409 215.798336 
L 905.948409 211.28807 
L 828.942045 211.28807 
z
" clip-path="url(#p40d79e9d4d)" style="fill: #1f77b4; fill-opacity: 0.75; stroke: #000000; stroke-linejoin: miter"/>
   </g>
   <g id="matplotlib.axis_3">
    <g id="xtick_6">
     <g id="line2d_12">
      <g>
       <use xlink:href="#mbae9c6326b" x="559.419773" y="219.4" style="stroke: #000000; stroke-width: 0.8"/>
      </g>
     </g>
     <g id="text_20">
      <!-- less_1%_difference -->
      <g transform="translate(562.040085 321.9625) rotate(-90) scale(0.1 -0.1)">
       <use xlink:href="#DejaVuSans-6c"/>
       <use xlink:href="#DejaVuSans-65" x="27.783203"/>
       <use xlink:href="#DejaVuSans-73" x="89.306641"/>
       <use xlink:href="#DejaVuSans-73" x="141.40625"/>
       <use xlink:href="#DejaVuSans-5f" x="193.505859"/>
       <use xlink:href="#DejaVuSans-31" x="243.505859"/>
       <use xlink:href="#DejaVuSans-25" x="307.128906"/>
       <use xlink:href="#DejaVuSans-5f" x="402.148438"/>
       <use xlink:href="#DejaVuSans-64" x="452.148438"/>
       <use xlink:href="#DejaVuSans-69" x="515.625"/>
       <use xlink:href="#DejaVuSans-66" x="543.408203"/>
       <use xlink:href="#DejaVuSans-66" x="578.613281"/>
       <use xlink:href="#DejaVuSans-65" x="613.818359"/>
       <use xlink:href="#DejaVuSans-72" x="675.341797"/>
       <use xlink:href="#DejaVuSans-65" x="714.205078"/>
       <use xlink:href="#DejaVuSans-6e" x="775.728516"/>
       <use xlink:href="#DejaVuSans-63" x="839.107422"/>
       <use xlink:href="#DejaVuSans-65" x="894.087891"/>
      </g>
     </g>
    </g>
    <g id="xtick_7">
     <g id="line2d_13">
      <g>
       <use xlink:href="#mbae9c6326b" x="636.426136" y="219.4" style="stroke: #000000; stroke-width: 0.8"/>
      </g>
     </g>
     <g id="text_21">
      <!-- more_1%_difference -->
      <g transform="translate(639.046449 328.510937) rotate(-90) scale(0.1 -0.1)">
       <use xlink:href="#DejaVuSans-6d"/>
       <use xlink:href="#DejaVuSans-6f" x="97.412109"/>
       <use xlink:href="#DejaVuSans-72" x="158.59375"/>
       <use xlink:href="#DejaVuSans-65" x="197.457031"/>
       <use xlink:href="#DejaVuSans-5f" x="258.980469"/>
       <use xlink:href="#DejaVuSans-31" x="308.980469"/>
       <use xlink:href="#DejaVuSans-25" x="372.603516"/>
       <use xlink:href="#DejaVuSans-5f" x="467.623047"/>
       <use xlink:href="#DejaVuSans-64" x="517.623047"/>
       <use xlink:href="#DejaVuSans-69" x="581.099609"/>
       <use xlink:href="#DejaVuSans-66" x="608.882812"/>
       <use xlink:href="#DejaVuSans-66" x="644.087891"/>
       <use xlink:href="#DejaVuSans-65" x="679.292969"/>
       <use xlink:href="#DejaVuSans-72" x="740.816406"/>
       <use xlink:href="#DejaVuSans-65" x="779.679688"/>
       <use xlink:href="#DejaVuSans-6e" x="841.203125"/>
       <use xlink:href="#DejaVuSans-63" x="904.582031"/>
       <use xlink:href="#DejaVuSans-65" x="959.5625"/>
      </g>
     </g>
    </g>
    <g id="xtick_8">
     <g id="line2d_14">
      <g>
       <use xlink:href="#mbae9c6326b" x="713.4325" y="219.4" style="stroke: #000000; stroke-width: 0.8"/>
      </g>
     </g>
     <g id="text_22">
      <!-- more_5%_difference -->
      <g transform="translate(716.052813 328.510937) rotate(-90) scale(0.1 -0.1)">
       <use xlink:href="#DejaVuSans-6d"/>
       <use xlink:href="#DejaVuSans-6f" x="97.412109"/>
       <use xlink:href="#DejaVuSans-72" x="158.59375"/>
       <use xlink:href="#DejaVuSans-65" x="197.457031"/>
       <use xlink:href="#DejaVuSans-5f" x="258.980469"/>
       <use xlink:href="#DejaVuSans-35" x="308.980469"/>
       <use xlink:href="#DejaVuSans-25" x="372.603516"/>
       <use xlink:href="#DejaVuSans-5f" x="467.623047"/>
       <use xlink:href="#DejaVuSans-64" x="517.623047"/>
       <use xlink:href="#DejaVuSans-69" x="581.099609"/>
       <use xlink:href="#DejaVuSans-66" x="608.882812"/>
       <use xlink:href="#DejaVuSans-66" x="644.087891"/>
       <use xlink:href="#DejaVuSans-65" x="679.292969"/>
       <use xlink:href="#DejaVuSans-72" x="740.816406"/>
       <use xlink:href="#DejaVuSans-65" x="779.679688"/>
       <use xlink:href="#DejaVuSans-6e" x="841.203125"/>
       <use xlink:href="#DejaVuSans-63" x="904.582031"/>
       <use xlink:href="#DejaVuSans-65" x="959.5625"/>
      </g>
     </g>
    </g>
    <g id="xtick_9">
     <g id="line2d_15">
      <g>
       <use xlink:href="#mbae9c6326b" x="790.438864" y="219.4" style="stroke: #000000; stroke-width: 0.8"/>
      </g>
     </g>
     <g id="text_23">
      <!-- more_10%_difference -->
      <g transform="translate(793.059176 334.873437) rotate(-90) scale(0.1 -0.1)">
       <use xlink:href="#DejaVuSans-6d"/>
       <use xlink:href="#DejaVuSans-6f" x="97.412109"/>
       <use xlink:href="#DejaVuSans-72" x="158.59375"/>
       <use xlink:href="#DejaVuSans-65" x="197.457031"/>
       <use xlink:href="#DejaVuSans-5f" x="258.980469"/>
       <use xlink:href="#DejaVuSans-31" x="308.980469"/>
       <use xlink:href="#DejaVuSans-30" x="372.603516"/>
       <use xlink:href="#DejaVuSans-25" x="436.226562"/>
       <use xlink:href="#DejaVuSans-5f" x="531.246094"/>
       <use xlink:href="#DejaVuSans-64" x="581.246094"/>
       <use xlink:href="#DejaVuSans-69" x="644.722656"/>
       <use xlink:href="#DejaVuSans-66" x="672.505859"/>
       <use xlink:href="#DejaVuSans-66" x="707.710938"/>
       <use xlink:href="#DejaVuSans-65" x="742.916016"/>
       <use xlink:href="#DejaVuSans-72" x="804.439453"/>
       <use xlink:href="#DejaVuSans-65" x="843.302734"/>
       <use xlink:href="#DejaVuSans-6e" x="904.826172"/>
       <use xlink:href="#DejaVuSans-63" x="968.205078"/>
       <use xlink:href="#DejaVuSans-65" x="1023.185547"/>
      </g>
     </g>
    </g>
    <g id="xtick_10">
     <g id="line2d_16">
      <g>
       <use xlink:href="#mbae9c6326b" x="867.445227" y="219.4" style="stroke: #000000; stroke-width: 0.8"/>
      </g>
     </g>
     <g id="text_24">
      <!-- more_20%_difference -->
      <g transform="translate(870.06554 334.873437) rotate(-90) scale(0.1 -0.1)">
       <use xlink:href="#DejaVuSans-6d"/>
       <use xlink:href="#DejaVuSans-6f" x="97.412109"/>
       <use xlink:href="#DejaVuSans-72" x="158.59375"/>
       <use xlink:href="#DejaVuSans-65" x="197.457031"/>
       <use xlink:href="#DejaVuSans-5f" x="258.980469"/>
       <use xlink:href="#DejaVuSans-32" x="308.980469"/>
       <use xlink:href="#DejaVuSans-30" x="372.603516"/>
       <use xlink:href="#DejaVuSans-25" x="436.226562"/>
       <use xlink:href="#DejaVuSans-5f" x="531.246094"/>
       <use xlink:href="#DejaVuSans-64" x="581.246094"/>
       <use xlink:href="#DejaVuSans-69" x="644.722656"/>
       <use xlink:href="#DejaVuSans-66" x="672.505859"/>
       <use xlink:href="#DejaVuSans-66" x="707.710938"/>
       <use xlink:href="#DejaVuSans-65" x="742.916016"/>
       <use xlink:href="#DejaVuSans-72" x="804.439453"/>
       <use xlink:href="#DejaVuSans-65" x="843.302734"/>
       <use xlink:href="#DejaVuSans-6e" x="904.826172"/>
       <use xlink:href="#DejaVuSans-63" x="968.205078"/>
       <use xlink:href="#DejaVuSans-65" x="1023.185547"/>
      </g>
     </g>
    </g>
    <g id="text_25">
     <!-- CDS Length Category -->
     <g transform="translate(659.65125 346.471875) scale(0.1 -0.1)">
      <defs>
       <path id="DejaVuSans-44" d="M 1259 4147 
L 1259 519 
L 2022 519 
Q 2988 519 3436 956 
Q 3884 1394 3884 2338 
Q 3884 3275 3436 3711 
Q 2988 4147 2022 4147 
L 1259 4147 
z
M 628 4666 
L 1925 4666 
Q 3281 4666 3915 4102 
Q 4550 3538 4550 2338 
Q 4550 1131 3912 565 
Q 3275 0 1925 0 
L 628 0 
L 628 4666 
z
" transform="scale(0.015625)"/>
       <path id="DejaVuSans-53" d="M 3425 4513 
L 3425 3897 
Q 3066 4069 2747 4153 
Q 2428 4238 2131 4238 
Q 1616 4238 1336 4038 
Q 1056 3838 1056 3469 
Q 1056 3159 1242 3001 
Q 1428 2844 1947 2747 
L 2328 2669 
Q 3034 2534 3370 2195 
Q 3706 1856 3706 1288 
Q 3706 609 3251 259 
Q 2797 -91 1919 -91 
Q 1588 -91 1214 -16 
Q 841 59 441 206 
L 441 856 
Q 825 641 1194 531 
Q 1563 422 1919 422 
Q 2459 422 2753 634 
Q 3047 847 3047 1241 
Q 3047 1584 2836 1778 
Q 2625 1972 2144 2069 
L 1759 2144 
Q 1053 2284 737 2584 
Q 422 2884 422 3419 
Q 422 4038 858 4394 
Q 1294 4750 2059 4750 
Q 2388 4750 2728 4690 
Q 3069 4631 3425 4513 
z
" transform="scale(0.015625)"/>
      </defs>
      <use xlink:href="#DejaVuSans-43"/>
      <use xlink:href="#DejaVuSans-44" x="69.824219"/>
      <use xlink:href="#DejaVuSans-53" x="146.826172"/>
      <use xlink:href="#DejaVuSans-20" x="210.302734"/>
      <use xlink:href="#DejaVuSans-4c" x="242.089844"/>
      <use xlink:href="#DejaVuSans-65" x="296.052734"/>
      <use xlink:href="#DejaVuSans-6e" x="357.576172"/>
      <use xlink:href="#DejaVuSans-67" x="420.955078"/>
      <use xlink:href="#DejaVuSans-74" x="484.431641"/>
      <use xlink:href="#DejaVuSans-68" x="523.640625"/>
      <use xlink:href="#DejaVuSans-20" x="587.019531"/>
      <use xlink:href="#DejaVuSans-43" x="618.806641"/>
      <use xlink:href="#DejaVuSans-61" x="688.630859"/>
      <use xlink:href="#DejaVuSans-74" x="749.910156"/>
      <use xlink:href="#DejaVuSans-65" x="789.119141"/>
      <use xlink:href="#DejaVuSans-67" x="850.642578"/>
      <use xlink:href="#DejaVuSans-6f" x="914.119141"/>
      <use xlink:href="#DejaVuSans-72" x="975.300781"/>
      <use xlink:href="#DejaVuSans-79" x="1016.414062"/>
     </g>
    </g>
   </g>
   <g id="matplotlib.axis_4">
    <g id="ytick_7">
     <g id="line2d_17">
      <g>
       <use xlink:href="#ma1f0a92961" x="501.665" y="219.4" style="stroke: #000000; stroke-width: 0.8"/>
      </g>
     </g>
    </g>
    <g id="ytick_8">
     <g id="line2d_18">
      <g>
       <use xlink:href="#ma1f0a92961" x="501.665" y="178.472" style="stroke: #000000; stroke-width: 0.8"/>
      </g>
     </g>
    </g>
    <g id="ytick_9">
     <g id="line2d_19">
      <g>
       <use xlink:href="#ma1f0a92961" x="501.665" y="137.544" style="stroke: #000000; stroke-width: 0.8"/>
      </g>
     </g>
    </g>
    <g id="ytick_10">
     <g id="line2d_20">
      <g>
       <use xlink:href="#ma1f0a92961" x="501.665" y="96.616" style="stroke: #000000; stroke-width: 0.8"/>
      </g>
     </g>
    </g>
    <g id="ytick_11">
     <g id="line2d_21">
      <g>
       <use xlink:href="#ma1f0a92961" x="501.665" y="55.688" style="stroke: #000000; stroke-width: 0.8"/>
      </g>
     </g>
    </g>
    <g id="ytick_12">
     <g id="line2d_22">
      <g>
       <use xlink:href="#ma1f0a92961" x="501.665" y="14.76" style="stroke: #000000; stroke-width: 0.8"/>
      </g>
     </g>
    </g>
   </g>
   <g id="patch_64">
    <path d="M 501.665 219.4 
L 501.665 14.76 
" style="fill: none; stroke: #000000; stroke-width: 0.8; stroke-linejoin: miter; stroke-linecap: square"/>
   </g>
   <g id="patch_65">
    <path d="M 925.2 219.4 
L 925.2 14.76 
" style="fill: none; stroke: #000000; stroke-width: 0.8; stroke-linejoin: miter; stroke-linecap: square"/>
   </g>
   <g id="patch_66">
    <path d="M 501.665 219.4 
L 925.2 219.4 
" style="fill: none; stroke: #000000; stroke-width: 0.8; stroke-linejoin: miter; stroke-linecap: square"/>
   </g>
   <g id="patch_67">
    <path d="M 501.665 14.76 
L 925.2 14.76 
" style="fill: none; stroke: #000000; stroke-width: 0.8; stroke-linejoin: miter; stroke-linecap: square"/>
   </g>
  </g>
 </g>
 <defs>
  <clipPath id="pecc72c5b5c">
   <rect x="63.83" y="14.76" width="423.535" height="204.64"/>
  </clipPath>
  <clipPath id="p40d79e9d4d">
   <rect x="501.665" y="14.76" width="423.535" height="204.64"/>
  </clipPath>
 </defs>
</svg>
